<mxfile host="app.diagrams.net" agent="Mozilla/5.0 (Windows NT 10.0; Win64; x64) AppleWebKit/537.36 (KHTML, like Gecko) Chrome/130.0.0.0 Safari/537.36" version="24.8.3">
  <diagram name="Page-1" id="MdFUuiO9aswlXjgDGJG3">
    <mxGraphModel dx="2318" dy="2011" grid="1" gridSize="10" guides="1" tooltips="1" connect="1" arrows="1" fold="1" page="1" pageScale="1" pageWidth="850" pageHeight="1100" math="0" shadow="0">
      <root>
        <mxCell id="0" />
        <mxCell id="1" parent="0" />
        <mxCell id="KE8k6S72q1i-HY503mFW-37" value="" style="rounded=0;whiteSpace=wrap;html=1;" vertex="1" parent="1">
          <mxGeometry x="720" y="130" width="190" height="410" as="geometry" />
        </mxCell>
        <mxCell id="KE8k6S72q1i-HY503mFW-33" value="" style="rounded=0;whiteSpace=wrap;html=1;" vertex="1" parent="1">
          <mxGeometry x="995" y="140" width="190" height="410" as="geometry" />
        </mxCell>
        <mxCell id="KE8k6S72q1i-HY503mFW-26" style="edgeStyle=orthogonalEdgeStyle;rounded=0;orthogonalLoop=1;jettySize=auto;html=1;exitX=1;exitY=0.5;exitDx=0;exitDy=0;entryX=0;entryY=0.5;entryDx=0;entryDy=0;" edge="1" parent="1" source="KE8k6S72q1i-HY503mFW-1" target="KE8k6S72q1i-HY503mFW-2">
          <mxGeometry relative="1" as="geometry" />
        </mxCell>
        <mxCell id="KE8k6S72q1i-HY503mFW-1" value="F5&lt;div&gt;+ iRules&lt;/div&gt;&lt;div&gt;+ Validations&lt;/div&gt;" style="rounded=0;whiteSpace=wrap;html=1;" vertex="1" parent="1">
          <mxGeometry x="110" y="85" width="50" height="410" as="geometry" />
        </mxCell>
        <mxCell id="KE8k6S72q1i-HY503mFW-4" value="" style="edgeStyle=orthogonalEdgeStyle;rounded=0;orthogonalLoop=1;jettySize=auto;html=1;" edge="1" parent="1" source="KE8k6S72q1i-HY503mFW-2" target="KE8k6S72q1i-HY503mFW-3">
          <mxGeometry relative="1" as="geometry" />
        </mxCell>
        <mxCell id="KE8k6S72q1i-HY503mFW-6" value="" style="edgeStyle=orthogonalEdgeStyle;rounded=0;orthogonalLoop=1;jettySize=auto;html=1;" edge="1" parent="1" source="KE8k6S72q1i-HY503mFW-2" target="KE8k6S72q1i-HY503mFW-5">
          <mxGeometry relative="1" as="geometry" />
        </mxCell>
        <mxCell id="KE8k6S72q1i-HY503mFW-8" value="" style="edgeStyle=orthogonalEdgeStyle;rounded=0;orthogonalLoop=1;jettySize=auto;html=1;" edge="1" parent="1" source="KE8k6S72q1i-HY503mFW-2" target="KE8k6S72q1i-HY503mFW-7">
          <mxGeometry relative="1" as="geometry" />
        </mxCell>
        <mxCell id="KE8k6S72q1i-HY503mFW-2" value="Cloud Front&lt;div&gt;+ WAF Rules&lt;/div&gt;" style="rounded=0;whiteSpace=wrap;html=1;" vertex="1" parent="1">
          <mxGeometry x="200" y="130" width="140" height="70" as="geometry" />
        </mxCell>
        <mxCell id="KE8k6S72q1i-HY503mFW-3" value="R53&lt;div&gt;Private hosted zone&lt;br&gt;&lt;div&gt;(DNS: Auto fail over)&lt;/div&gt;&lt;/div&gt;" style="rounded=0;whiteSpace=wrap;html=1;" vertex="1" parent="1">
          <mxGeometry x="200" y="-20" width="140" height="70" as="geometry" />
        </mxCell>
        <mxCell id="KE8k6S72q1i-HY503mFW-5" value="S3 - Static Resource3&lt;div&gt;(replicated to other region)&lt;/div&gt;" style="rounded=0;whiteSpace=wrap;html=1;" vertex="1" parent="1">
          <mxGeometry x="460" y="130" width="140" height="70" as="geometry" />
        </mxCell>
        <mxCell id="KE8k6S72q1i-HY503mFW-10" value="" style="edgeStyle=orthogonalEdgeStyle;rounded=0;orthogonalLoop=1;jettySize=auto;html=1;" edge="1" parent="1" source="KE8k6S72q1i-HY503mFW-7" target="KE8k6S72q1i-HY503mFW-9">
          <mxGeometry relative="1" as="geometry" />
        </mxCell>
        <mxCell id="KE8k6S72q1i-HY503mFW-14" value="" style="edgeStyle=orthogonalEdgeStyle;rounded=0;orthogonalLoop=1;jettySize=auto;html=1;" edge="1" parent="1" source="KE8k6S72q1i-HY503mFW-7" target="KE8k6S72q1i-HY503mFW-13">
          <mxGeometry relative="1" as="geometry" />
        </mxCell>
        <mxCell id="KE8k6S72q1i-HY503mFW-7" value="API GW" style="rounded=0;whiteSpace=wrap;html=1;" vertex="1" parent="1">
          <mxGeometry x="320" y="290" width="140" height="70" as="geometry" />
        </mxCell>
        <mxCell id="KE8k6S72q1i-HY503mFW-9" value="Lambda Authorizer" style="rounded=0;whiteSpace=wrap;html=1;" vertex="1" parent="1">
          <mxGeometry x="320" y="440" width="140" height="70" as="geometry" />
        </mxCell>
        <mxCell id="KE8k6S72q1i-HY503mFW-11" value="Policy Autthorizer&amp;nbsp; Service" style="rounded=0;whiteSpace=wrap;html=1;" vertex="1" parent="1">
          <mxGeometry x="745" y="360" width="140" height="70" as="geometry" />
        </mxCell>
        <mxCell id="KE8k6S72q1i-HY503mFW-16" value="" style="edgeStyle=orthogonalEdgeStyle;rounded=0;orthogonalLoop=1;jettySize=auto;html=1;exitX=1;exitY=0.5;exitDx=0;exitDy=0;entryX=0;entryY=0.75;entryDx=0;entryDy=0;" edge="1" parent="1" source="KE8k6S72q1i-HY503mFW-9" target="KE8k6S72q1i-HY503mFW-11">
          <mxGeometry relative="1" as="geometry" />
        </mxCell>
        <mxCell id="KE8k6S72q1i-HY503mFW-36" value="" style="edgeStyle=orthogonalEdgeStyle;rounded=0;orthogonalLoop=1;jettySize=auto;html=1;entryX=0.015;entryY=0.47;entryDx=0;entryDy=0;entryPerimeter=0;" edge="1" parent="1" source="KE8k6S72q1i-HY503mFW-13" target="KE8k6S72q1i-HY503mFW-37">
          <mxGeometry relative="1" as="geometry" />
        </mxCell>
        <mxCell id="KE8k6S72q1i-HY503mFW-13" value="NLB&lt;div&gt;(Target groups)&lt;/div&gt;" style="rounded=0;whiteSpace=wrap;html=1;" vertex="1" parent="1">
          <mxGeometry x="540" y="290" width="140" height="70" as="geometry" />
        </mxCell>
        <mxCell id="KE8k6S72q1i-HY503mFW-15" value="Orchestrator&lt;div&gt;(apache Camal)&lt;/div&gt;" style="rounded=0;whiteSpace=wrap;html=1;" vertex="1" parent="1">
          <mxGeometry x="745" y="255" width="140" height="70" as="geometry" />
        </mxCell>
        <mxCell id="KE8k6S72q1i-HY503mFW-17" value="ECS Services" style="rounded=0;whiteSpace=wrap;html=1;" vertex="1" parent="1">
          <mxGeometry x="745" y="160" width="140" height="70" as="geometry" />
        </mxCell>
        <mxCell id="KE8k6S72q1i-HY503mFW-21" value="" style="edgeStyle=orthogonalEdgeStyle;rounded=0;orthogonalLoop=1;jettySize=auto;html=1;" edge="1" parent="1" source="KE8k6S72q1i-HY503mFW-19" target="KE8k6S72q1i-HY503mFW-20">
          <mxGeometry relative="1" as="geometry" />
        </mxCell>
        <mxCell id="KE8k6S72q1i-HY503mFW-22" value="" style="edgeStyle=orthogonalEdgeStyle;rounded=0;orthogonalLoop=1;jettySize=auto;html=1;" edge="1" parent="1" source="KE8k6S72q1i-HY503mFW-19" target="KE8k6S72q1i-HY503mFW-1">
          <mxGeometry relative="1" as="geometry" />
        </mxCell>
        <mxCell id="KE8k6S72q1i-HY503mFW-19" value="Actor" style="shape=umlActor;verticalLabelPosition=bottom;verticalAlign=top;html=1;outlineConnect=0;" vertex="1" parent="1">
          <mxGeometry x="10" y="260" width="30" height="60" as="geometry" />
        </mxCell>
        <mxCell id="KE8k6S72q1i-HY503mFW-20" value="OKTA" style="whiteSpace=wrap;html=1;verticalAlign=top;" vertex="1" parent="1">
          <mxGeometry x="-35" y="120" width="120" height="60" as="geometry" />
        </mxCell>
        <mxCell id="KE8k6S72q1i-HY503mFW-23" value="Couchbase&lt;div&gt;(No SQL distributed db)&lt;/div&gt;" style="rounded=0;whiteSpace=wrap;html=1;" vertex="1" parent="1">
          <mxGeometry x="1020" y="170" width="140" height="70" as="geometry" />
        </mxCell>
        <mxCell id="KE8k6S72q1i-HY503mFW-27" value="RDS Aurora Global" style="rounded=0;whiteSpace=wrap;html=1;" vertex="1" parent="1">
          <mxGeometry x="1020" y="270" width="140" height="70" as="geometry" />
        </mxCell>
        <mxCell id="KE8k6S72q1i-HY503mFW-30" value="Kafka" style="rounded=0;whiteSpace=wrap;html=1;" vertex="1" parent="1">
          <mxGeometry x="1020" y="380" width="140" height="60" as="geometry" />
        </mxCell>
        <mxCell id="KE8k6S72q1i-HY503mFW-39" value="Kafka Proxy" style="rounded=0;whiteSpace=wrap;html=1;" vertex="1" parent="1">
          <mxGeometry x="745" y="450" width="140" height="70" as="geometry" />
        </mxCell>
      </root>
    </mxGraphModel>
  </diagram>
</mxfile>
